<?xml version="1.0" encoding="UTF-8"?>
<svg xmlns="http://www.w3.org/2000/svg" viewBox="0 0 464.54 66.28">
  <defs>
    <style>
      .cls-1 {
        fill: #9cc41b;
      }

      .cls-2 {
        fill: #0f1a13;
      }
    </style>
  </defs>
  <g id="Point2_Logo">
    <circle class="cls-1" cx="458.16" cy="59.69" r="6.38"/>
  </g>
  <g id="a">
    <path class="cls-2" d="M448.24,59.69c0-1.32.26-2.57.73-3.72.02-.16.08-.32.2-.47v-.05h-.98c-3.04,0-5-1.96-5-5V13.6h-8.43v9.02c-4.21-6.27-11.07-10.19-19.4-10.19-14.31,0-24.99,11.27-24.99,26.17s10.68,26.17,24.99,26.17c8.43,0,15.39-4.02,19.6-10.39.78,5.98,4.8,9.21,11.57,9.21h2.51c-.51-1.2-.79-2.51-.79-3.89ZM416.92,56.62c-10.29,0-17.93-7.74-17.93-18.03s7.64-18.03,17.93-18.03,17.83,7.74,17.83,18.03-7.64,18.03-17.83,18.03Z"/>
  </g>
  <g id="t">
    <path class="cls-2" d="M362.14,48.88v-27.63h-9.11v-7.64h5.88c2.35,0,3.63-1.27,3.63-3.72V-.22h8.04v13.82h13.42v7.64h-13.42v26.26c0,5.1,3.23,8.33,8.53,8.33h4.9v7.74h-6.08c-10.09,0-15.78-5.39-15.78-14.7Z"/>
  </g>
  <g id="s">
    <path class="cls-2" d="M309.7,54.76l-4.12,8.82h-8.82l23.72-49.98h9.7c4.21,13.43,21.27,14.01,21.27,31.26,0,11.86-7.84,19.89-20.38,19.89-8.92,0-16.76-3.92-21.36-10ZM325.19,21.93l-12.15,25.87c3.14,5.29,9.6,8.82,16.56,8.82,7.74,0,13.13-4.6,13.13-11.86,0-10.29-12.06-12.35-17.54-22.83Z"/>
  </g>
  <g id="e">
    <path class="cls-2" d="M243.55,38.59c0-14.9,11.47-26.17,26.56-26.17s26.56,11.27,26.56,26.17c0,.98-.1,2.55-.2,3.53h-43.9c1.47,8.82,8.53,14.9,17.93,14.9,6.96,0,13.03-3.33,15.88-8.33h9.41c-3.92,9.6-13.62,16.07-25.38,16.07-15.39,0-26.85-11.27-26.85-26.17ZM252.67,34.57h34.98c-1.57-8.53-8.62-14.4-17.54-14.4s-15.78,5.88-17.44,14.4Z"/>
  </g>
  <g id="v">
    <path class="cls-2" d="M189.74,13.6h9.6l16.95,39.88,9.29-22.34c2.94-7.15,4.02-13.23,2.84-18.42h8.62c1.18,5.59.1,12.25-3.33,20.19l-13.21,30.67h-8.82l-21.95-49.98Z"/>
  </g>
  <g id="e-2" data-name="e">
    <path class="cls-1" d="M134.37,38.59c0-14.9,11.47-26.17,26.56-26.17s26.56,11.27,26.56,26.17c0,.98-.1,2.55-.2,3.53h-43.9c1.47,8.82,8.53,14.9,17.93,14.9,6.96,0,13.03-3.33,15.88-8.33h9.41c-3.92,9.6-13.62,16.07-25.38,16.07-15.39,0-26.85-11.27-26.85-26.17ZM143.48,34.57h34.98c-1.57-8.53-8.62-14.4-17.54-14.4s-15.78,5.88-17.44,14.4Z"/>
  </g>
  <g id="R">
    <path class="cls-1" d="M127.21,55.45c-6.08,0-9.7-4.21-9.7-10.98s3.43-14.7,9.51-23.62v-2.06l-33.1-3.84c-1.11,4.22-4.93,7.34-9.49,7.38l-8.08,41.24h8.33l7.74-40.77,22.54,2.74c-3.92,6.96-6.17,13.72-6.17,19.8,0,11.27,6.37,18.23,17.74,18.23h2.65v-8.13h-1.96Z"/>
  </g>
  <g id="Point1_Logo">
    <circle class="cls-1" cx="84.34" cy="12.42" r="6.38"/>
  </g>
  <g id="Point1_Picto">
    <g>
      <circle class="cls-1" cx="46.04" cy="59.61" r="6.41"/>
      <circle class="cls-1" cx="6.41" cy="12.9" r="6.41"/>
    </g>
  </g>
  <g id="BarrePicyo">
    <path class="cls-2" d="M36.34,10.77h-8.67c1.18,5.22.1,11.33-2.86,18.52l-5.35,12.15c-3.45,7.98-4.53,14.68-3.35,20.3h8.67c-1.18-5.22-.1-11.33,2.86-18.52l5.35-12.15c3.45-7.98,4.53-14.68,3.35-20.3Z"/>
  </g>
</svg>